<mxfile host="app.diagrams.net" modified="2021-09-28T21:38:56.827Z" agent="5.0 (Windows NT 10.0; Win64; x64) AppleWebKit/537.36 (KHTML, like Gecko) Chrome/94.0.4606.61 Safari/537.36" etag="JIiiNSxzm11A9orkfnGD" version="15.3.7" type="github">
  <diagram id="TLql4AaLcwdexKatcYmM" name="Page-1">
    <mxGraphModel dx="2912" dy="762" grid="1" gridSize="10" guides="1" tooltips="1" connect="1" arrows="1" fold="1" page="1" pageScale="1" pageWidth="850" pageHeight="1100" math="0" shadow="0">
      <root>
        <mxCell id="0" />
        <mxCell id="1" parent="0" />
        <mxCell id="D433n9aJu6iHSlLt_FNF-1" value="Asamble (DLL)" style="rounded=0;whiteSpace=wrap;html=1;fontSize=22;verticalAlign=top;fillColor=#d5e8d4;strokeColor=#82b366;" parent="1" vertex="1">
          <mxGeometry x="-20" y="270" width="1910" height="930" as="geometry" />
        </mxCell>
        <mxCell id="D433n9aJu6iHSlLt_FNF-7" value="&lt;blockquote style=&quot;margin: 0 0 0 40px ; border: none ; padding: 0px&quot;&gt;Namespace&lt;/blockquote&gt;" style="rounded=0;whiteSpace=wrap;html=1;sketch=0;fontSize=22;strokeColor=#6c8ebf;fillColor=#dae8fc;verticalAlign=top;align=left;" parent="1" vertex="1">
          <mxGeometry x="410" y="330" width="700" height="410" as="geometry" />
        </mxCell>
        <mxCell id="D433n9aJu6iHSlLt_FNF-21" value="&lt;blockquote style=&quot;margin: 0 0 0 40px ; border: none ; padding: 0px&quot;&gt;Clase&lt;/blockquote&gt;" style="rounded=0;whiteSpace=wrap;html=1;sketch=0;fontSize=16;strokeColor=#d79b00;fillColor=#ffe6cc;verticalAlign=top;align=left;fontStyle=1" parent="1" vertex="1">
          <mxGeometry x="450" y="550" width="290" height="160" as="geometry" />
        </mxCell>
        <mxCell id="D433n9aJu6iHSlLt_FNF-22" value="Merod1" style="rounded=0;whiteSpace=wrap;html=1;sketch=0;fontSize=16;strokeColor=#9673a6;fillColor=#e1d5e7;verticalAlign=middle;fontStyle=1" parent="1" vertex="1">
          <mxGeometry x="505" y="585" width="80" height="40" as="geometry" />
        </mxCell>
        <mxCell id="D433n9aJu6iHSlLt_FNF-23" value="Method3" style="rounded=0;whiteSpace=wrap;html=1;sketch=0;fontSize=16;strokeColor=#9673a6;fillColor=#e1d5e7;verticalAlign=middle;fontStyle=1;align=center;" parent="1" vertex="1">
          <mxGeometry x="505" y="635" width="80" height="40" as="geometry" />
        </mxCell>
        <mxCell id="D433n9aJu6iHSlLt_FNF-24" value="Method4" style="rounded=0;whiteSpace=wrap;html=1;sketch=0;fontSize=16;strokeColor=#9673a6;fillColor=#e1d5e7;verticalAlign=middle;fontStyle=1" parent="1" vertex="1">
          <mxGeometry x="605" y="635" width="80" height="40" as="geometry" />
        </mxCell>
        <mxCell id="D433n9aJu6iHSlLt_FNF-25" value="Method2" style="rounded=0;whiteSpace=wrap;html=1;sketch=0;fontSize=16;strokeColor=#9673a6;fillColor=#e1d5e7;verticalAlign=middle;fontStyle=1" parent="1" vertex="1">
          <mxGeometry x="605" y="585" width="80" height="40" as="geometry" />
        </mxCell>
        <mxCell id="D433n9aJu6iHSlLt_FNF-35" value="&lt;blockquote style=&quot;margin: 0 0 0 40px ; border: none ; padding: 0px&quot;&gt;Clase&lt;/blockquote&gt;" style="rounded=0;whiteSpace=wrap;html=1;sketch=0;fontSize=16;strokeColor=#d79b00;fillColor=#ffe6cc;verticalAlign=top;align=left;fontStyle=1" parent="1" vertex="1">
          <mxGeometry x="780" y="550" width="290" height="160" as="geometry" />
        </mxCell>
        <mxCell id="D433n9aJu6iHSlLt_FNF-36" value="Merod1" style="rounded=0;whiteSpace=wrap;html=1;sketch=0;fontSize=16;strokeColor=#9673a6;fillColor=#e1d5e7;verticalAlign=middle;fontStyle=1" parent="1" vertex="1">
          <mxGeometry x="835" y="585" width="80" height="40" as="geometry" />
        </mxCell>
        <mxCell id="D433n9aJu6iHSlLt_FNF-37" value="Method3" style="rounded=0;whiteSpace=wrap;html=1;sketch=0;fontSize=16;strokeColor=#9673a6;fillColor=#e1d5e7;verticalAlign=middle;fontStyle=1;align=center;" parent="1" vertex="1">
          <mxGeometry x="835" y="635" width="80" height="40" as="geometry" />
        </mxCell>
        <mxCell id="D433n9aJu6iHSlLt_FNF-38" value="Method4" style="rounded=0;whiteSpace=wrap;html=1;sketch=0;fontSize=16;strokeColor=#9673a6;fillColor=#e1d5e7;verticalAlign=middle;fontStyle=1" parent="1" vertex="1">
          <mxGeometry x="935" y="635" width="80" height="40" as="geometry" />
        </mxCell>
        <mxCell id="D433n9aJu6iHSlLt_FNF-39" value="Method2" style="rounded=0;whiteSpace=wrap;html=1;sketch=0;fontSize=16;strokeColor=#9673a6;fillColor=#e1d5e7;verticalAlign=middle;fontStyle=1" parent="1" vertex="1">
          <mxGeometry x="935" y="585" width="80" height="40" as="geometry" />
        </mxCell>
        <mxCell id="D433n9aJu6iHSlLt_FNF-40" value="&lt;blockquote style=&quot;margin: 0 0 0 40px ; border: none ; padding: 0px&quot;&gt;Clase&lt;/blockquote&gt;" style="rounded=0;whiteSpace=wrap;html=1;sketch=0;fontSize=16;strokeColor=#d79b00;fillColor=#ffe6cc;verticalAlign=top;align=left;fontStyle=1" parent="1" vertex="1">
          <mxGeometry x="780" y="380" width="290" height="160" as="geometry" />
        </mxCell>
        <mxCell id="D433n9aJu6iHSlLt_FNF-41" value="Merod1" style="rounded=0;whiteSpace=wrap;html=1;sketch=0;fontSize=16;strokeColor=#9673a6;fillColor=#e1d5e7;verticalAlign=middle;fontStyle=1" parent="1" vertex="1">
          <mxGeometry x="835" y="415" width="80" height="40" as="geometry" />
        </mxCell>
        <mxCell id="D433n9aJu6iHSlLt_FNF-42" value="Method3" style="rounded=0;whiteSpace=wrap;html=1;sketch=0;fontSize=16;strokeColor=#9673a6;fillColor=#e1d5e7;verticalAlign=middle;fontStyle=1;align=center;" parent="1" vertex="1">
          <mxGeometry x="835" y="465" width="80" height="40" as="geometry" />
        </mxCell>
        <mxCell id="D433n9aJu6iHSlLt_FNF-43" value="Method4" style="rounded=0;whiteSpace=wrap;html=1;sketch=0;fontSize=16;strokeColor=#9673a6;fillColor=#e1d5e7;verticalAlign=middle;fontStyle=1" parent="1" vertex="1">
          <mxGeometry x="935" y="465" width="80" height="40" as="geometry" />
        </mxCell>
        <mxCell id="D433n9aJu6iHSlLt_FNF-44" value="Method2" style="rounded=0;whiteSpace=wrap;html=1;sketch=0;fontSize=16;strokeColor=#9673a6;fillColor=#e1d5e7;verticalAlign=middle;fontStyle=1" parent="1" vertex="1">
          <mxGeometry x="935" y="415" width="80" height="40" as="geometry" />
        </mxCell>
        <mxCell id="D433n9aJu6iHSlLt_FNF-45" value="&lt;blockquote style=&quot;margin: 0 0 0 40px ; border: none ; padding: 0px&quot;&gt;Clase&lt;/blockquote&gt;" style="rounded=0;whiteSpace=wrap;html=1;sketch=0;fontSize=16;strokeColor=#d79b00;fillColor=#ffe6cc;verticalAlign=top;align=left;fontStyle=1" parent="1" vertex="1">
          <mxGeometry x="450" y="380" width="290" height="160" as="geometry" />
        </mxCell>
        <mxCell id="D433n9aJu6iHSlLt_FNF-46" value="Merod1" style="rounded=0;whiteSpace=wrap;html=1;sketch=0;fontSize=16;strokeColor=#9673a6;fillColor=#e1d5e7;verticalAlign=middle;fontStyle=1" parent="1" vertex="1">
          <mxGeometry x="505" y="415" width="80" height="40" as="geometry" />
        </mxCell>
        <mxCell id="D433n9aJu6iHSlLt_FNF-47" value="Method3" style="rounded=0;whiteSpace=wrap;html=1;sketch=0;fontSize=16;strokeColor=#9673a6;fillColor=#e1d5e7;verticalAlign=middle;fontStyle=1;align=center;" parent="1" vertex="1">
          <mxGeometry x="505" y="465" width="80" height="40" as="geometry" />
        </mxCell>
        <mxCell id="D433n9aJu6iHSlLt_FNF-48" value="Method4" style="rounded=0;whiteSpace=wrap;html=1;sketch=0;fontSize=16;strokeColor=#9673a6;fillColor=#e1d5e7;verticalAlign=middle;fontStyle=1" parent="1" vertex="1">
          <mxGeometry x="605" y="465" width="80" height="40" as="geometry" />
        </mxCell>
        <mxCell id="D433n9aJu6iHSlLt_FNF-49" value="Method2" style="rounded=0;whiteSpace=wrap;html=1;sketch=0;fontSize=16;strokeColor=#9673a6;fillColor=#e1d5e7;verticalAlign=middle;fontStyle=1" parent="1" vertex="1">
          <mxGeometry x="605" y="415" width="80" height="40" as="geometry" />
        </mxCell>
        <mxCell id="D433n9aJu6iHSlLt_FNF-50" value="&lt;blockquote style=&quot;margin: 0 0 0 40px ; border: none ; padding: 0px&quot;&gt;Namespace&lt;/blockquote&gt;" style="rounded=0;whiteSpace=wrap;html=1;sketch=0;fontSize=22;strokeColor=#6c8ebf;fillColor=#dae8fc;verticalAlign=top;align=left;" parent="1" vertex="1">
          <mxGeometry x="1140" y="330" width="700" height="410" as="geometry" />
        </mxCell>
        <mxCell id="D433n9aJu6iHSlLt_FNF-51" value="&lt;blockquote style=&quot;margin: 0 0 0 40px ; border: none ; padding: 0px&quot;&gt;Clase&lt;/blockquote&gt;" style="rounded=0;whiteSpace=wrap;html=1;sketch=0;fontSize=16;strokeColor=#d79b00;fillColor=#ffe6cc;verticalAlign=top;align=left;fontStyle=1" parent="1" vertex="1">
          <mxGeometry x="1180" y="550" width="290" height="160" as="geometry" />
        </mxCell>
        <mxCell id="D433n9aJu6iHSlLt_FNF-52" value="Merod1" style="rounded=0;whiteSpace=wrap;html=1;sketch=0;fontSize=16;strokeColor=#9673a6;fillColor=#e1d5e7;verticalAlign=middle;fontStyle=1" parent="1" vertex="1">
          <mxGeometry x="1235" y="585" width="80" height="40" as="geometry" />
        </mxCell>
        <mxCell id="D433n9aJu6iHSlLt_FNF-53" value="Method3" style="rounded=0;whiteSpace=wrap;html=1;sketch=0;fontSize=16;strokeColor=#9673a6;fillColor=#e1d5e7;verticalAlign=middle;fontStyle=1;align=center;" parent="1" vertex="1">
          <mxGeometry x="1235" y="635" width="80" height="40" as="geometry" />
        </mxCell>
        <mxCell id="D433n9aJu6iHSlLt_FNF-54" value="Method4" style="rounded=0;whiteSpace=wrap;html=1;sketch=0;fontSize=16;strokeColor=#9673a6;fillColor=#e1d5e7;verticalAlign=middle;fontStyle=1" parent="1" vertex="1">
          <mxGeometry x="1335" y="635" width="80" height="40" as="geometry" />
        </mxCell>
        <mxCell id="D433n9aJu6iHSlLt_FNF-55" value="Method2" style="rounded=0;whiteSpace=wrap;html=1;sketch=0;fontSize=16;strokeColor=#9673a6;fillColor=#e1d5e7;verticalAlign=middle;fontStyle=1" parent="1" vertex="1">
          <mxGeometry x="1335" y="585" width="80" height="40" as="geometry" />
        </mxCell>
        <mxCell id="D433n9aJu6iHSlLt_FNF-56" value="&lt;blockquote style=&quot;margin: 0 0 0 40px ; border: none ; padding: 0px&quot;&gt;Clase&lt;/blockquote&gt;" style="rounded=0;whiteSpace=wrap;html=1;sketch=0;fontSize=16;strokeColor=#d79b00;fillColor=#ffe6cc;verticalAlign=top;align=left;fontStyle=1" parent="1" vertex="1">
          <mxGeometry x="1510" y="550" width="290" height="160" as="geometry" />
        </mxCell>
        <mxCell id="D433n9aJu6iHSlLt_FNF-57" value="Merod1" style="rounded=0;whiteSpace=wrap;html=1;sketch=0;fontSize=16;strokeColor=#9673a6;fillColor=#e1d5e7;verticalAlign=middle;fontStyle=1" parent="1" vertex="1">
          <mxGeometry x="1565" y="585" width="80" height="40" as="geometry" />
        </mxCell>
        <mxCell id="D433n9aJu6iHSlLt_FNF-58" value="Method3" style="rounded=0;whiteSpace=wrap;html=1;sketch=0;fontSize=16;strokeColor=#9673a6;fillColor=#e1d5e7;verticalAlign=middle;fontStyle=1;align=center;" parent="1" vertex="1">
          <mxGeometry x="1565" y="635" width="80" height="40" as="geometry" />
        </mxCell>
        <mxCell id="D433n9aJu6iHSlLt_FNF-59" value="Method4" style="rounded=0;whiteSpace=wrap;html=1;sketch=0;fontSize=16;strokeColor=#9673a6;fillColor=#e1d5e7;verticalAlign=middle;fontStyle=1" parent="1" vertex="1">
          <mxGeometry x="1665" y="635" width="80" height="40" as="geometry" />
        </mxCell>
        <mxCell id="D433n9aJu6iHSlLt_FNF-60" value="Method2" style="rounded=0;whiteSpace=wrap;html=1;sketch=0;fontSize=16;strokeColor=#9673a6;fillColor=#e1d5e7;verticalAlign=middle;fontStyle=1" parent="1" vertex="1">
          <mxGeometry x="1665" y="585" width="80" height="40" as="geometry" />
        </mxCell>
        <mxCell id="D433n9aJu6iHSlLt_FNF-61" value="&lt;blockquote style=&quot;margin: 0 0 0 40px ; border: none ; padding: 0px&quot;&gt;Clase&lt;/blockquote&gt;" style="rounded=0;whiteSpace=wrap;html=1;sketch=0;fontSize=16;strokeColor=#d79b00;fillColor=#ffe6cc;verticalAlign=top;align=left;fontStyle=1" parent="1" vertex="1">
          <mxGeometry x="1510" y="380" width="290" height="160" as="geometry" />
        </mxCell>
        <mxCell id="D433n9aJu6iHSlLt_FNF-62" value="Merod1" style="rounded=0;whiteSpace=wrap;html=1;sketch=0;fontSize=16;strokeColor=#9673a6;fillColor=#e1d5e7;verticalAlign=middle;fontStyle=1" parent="1" vertex="1">
          <mxGeometry x="1565" y="415" width="80" height="40" as="geometry" />
        </mxCell>
        <mxCell id="D433n9aJu6iHSlLt_FNF-63" value="Method3" style="rounded=0;whiteSpace=wrap;html=1;sketch=0;fontSize=16;strokeColor=#9673a6;fillColor=#e1d5e7;verticalAlign=middle;fontStyle=1;align=center;" parent="1" vertex="1">
          <mxGeometry x="1565" y="465" width="80" height="40" as="geometry" />
        </mxCell>
        <mxCell id="D433n9aJu6iHSlLt_FNF-64" value="Method4" style="rounded=0;whiteSpace=wrap;html=1;sketch=0;fontSize=16;strokeColor=#9673a6;fillColor=#e1d5e7;verticalAlign=middle;fontStyle=1" parent="1" vertex="1">
          <mxGeometry x="1665" y="465" width="80" height="40" as="geometry" />
        </mxCell>
        <mxCell id="D433n9aJu6iHSlLt_FNF-65" value="Method2" style="rounded=0;whiteSpace=wrap;html=1;sketch=0;fontSize=16;strokeColor=#9673a6;fillColor=#e1d5e7;verticalAlign=middle;fontStyle=1" parent="1" vertex="1">
          <mxGeometry x="1665" y="415" width="80" height="40" as="geometry" />
        </mxCell>
        <mxCell id="D433n9aJu6iHSlLt_FNF-66" value="&lt;blockquote style=&quot;margin: 0 0 0 40px ; border: none ; padding: 0px&quot;&gt;Clase&lt;/blockquote&gt;" style="rounded=0;whiteSpace=wrap;html=1;sketch=0;fontSize=16;strokeColor=#d79b00;fillColor=#ffe6cc;verticalAlign=top;align=left;fontStyle=1" parent="1" vertex="1">
          <mxGeometry x="1180" y="380" width="290" height="160" as="geometry" />
        </mxCell>
        <mxCell id="D433n9aJu6iHSlLt_FNF-67" value="Merod1" style="rounded=0;whiteSpace=wrap;html=1;sketch=0;fontSize=16;strokeColor=#9673a6;fillColor=#e1d5e7;verticalAlign=middle;fontStyle=1" parent="1" vertex="1">
          <mxGeometry x="1235" y="415" width="80" height="40" as="geometry" />
        </mxCell>
        <mxCell id="D433n9aJu6iHSlLt_FNF-68" value="Method3" style="rounded=0;whiteSpace=wrap;html=1;sketch=0;fontSize=16;strokeColor=#9673a6;fillColor=#e1d5e7;verticalAlign=middle;fontStyle=1;align=center;" parent="1" vertex="1">
          <mxGeometry x="1235" y="465" width="80" height="40" as="geometry" />
        </mxCell>
        <mxCell id="D433n9aJu6iHSlLt_FNF-69" value="Method4" style="rounded=0;whiteSpace=wrap;html=1;sketch=0;fontSize=16;strokeColor=#9673a6;fillColor=#e1d5e7;verticalAlign=middle;fontStyle=1" parent="1" vertex="1">
          <mxGeometry x="1335" y="465" width="80" height="40" as="geometry" />
        </mxCell>
        <mxCell id="D433n9aJu6iHSlLt_FNF-70" value="Method2" style="rounded=0;whiteSpace=wrap;html=1;sketch=0;fontSize=16;strokeColor=#9673a6;fillColor=#e1d5e7;verticalAlign=middle;fontStyle=1" parent="1" vertex="1">
          <mxGeometry x="1335" y="415" width="80" height="40" as="geometry" />
        </mxCell>
        <mxCell id="D433n9aJu6iHSlLt_FNF-71" value="&lt;blockquote style=&quot;margin: 0 0 0 40px ; border: none ; padding: 0px&quot;&gt;Namespace&lt;/blockquote&gt;" style="rounded=0;whiteSpace=wrap;html=1;sketch=0;fontSize=22;strokeColor=#6c8ebf;fillColor=#dae8fc;verticalAlign=top;align=left;" parent="1" vertex="1">
          <mxGeometry x="410" y="760" width="700" height="410" as="geometry" />
        </mxCell>
        <mxCell id="D433n9aJu6iHSlLt_FNF-72" value="&lt;blockquote style=&quot;margin: 0 0 0 40px ; border: none ; padding: 0px&quot;&gt;Clase&lt;/blockquote&gt;" style="rounded=0;whiteSpace=wrap;html=1;sketch=0;fontSize=16;strokeColor=#d79b00;fillColor=#ffe6cc;verticalAlign=top;align=left;fontStyle=1" parent="1" vertex="1">
          <mxGeometry x="450" y="980" width="290" height="160" as="geometry" />
        </mxCell>
        <mxCell id="D433n9aJu6iHSlLt_FNF-73" value="Merod1" style="rounded=0;whiteSpace=wrap;html=1;sketch=0;fontSize=16;strokeColor=#9673a6;fillColor=#e1d5e7;verticalAlign=middle;fontStyle=1" parent="1" vertex="1">
          <mxGeometry x="505" y="1015" width="80" height="40" as="geometry" />
        </mxCell>
        <mxCell id="D433n9aJu6iHSlLt_FNF-74" value="Method3" style="rounded=0;whiteSpace=wrap;html=1;sketch=0;fontSize=16;strokeColor=#9673a6;fillColor=#e1d5e7;verticalAlign=middle;fontStyle=1;align=center;" parent="1" vertex="1">
          <mxGeometry x="505" y="1065" width="80" height="40" as="geometry" />
        </mxCell>
        <mxCell id="D433n9aJu6iHSlLt_FNF-75" value="Method4" style="rounded=0;whiteSpace=wrap;html=1;sketch=0;fontSize=16;strokeColor=#9673a6;fillColor=#e1d5e7;verticalAlign=middle;fontStyle=1" parent="1" vertex="1">
          <mxGeometry x="605" y="1065" width="80" height="40" as="geometry" />
        </mxCell>
        <mxCell id="D433n9aJu6iHSlLt_FNF-76" value="Method2" style="rounded=0;whiteSpace=wrap;html=1;sketch=0;fontSize=16;strokeColor=#9673a6;fillColor=#e1d5e7;verticalAlign=middle;fontStyle=1" parent="1" vertex="1">
          <mxGeometry x="605" y="1015" width="80" height="40" as="geometry" />
        </mxCell>
        <mxCell id="D433n9aJu6iHSlLt_FNF-77" value="&lt;blockquote style=&quot;margin: 0 0 0 40px ; border: none ; padding: 0px&quot;&gt;Clase&lt;/blockquote&gt;" style="rounded=0;whiteSpace=wrap;html=1;sketch=0;fontSize=16;strokeColor=#d79b00;fillColor=#ffe6cc;verticalAlign=top;align=left;fontStyle=1" parent="1" vertex="1">
          <mxGeometry x="780" y="980" width="290" height="160" as="geometry" />
        </mxCell>
        <mxCell id="D433n9aJu6iHSlLt_FNF-78" value="Merod1" style="rounded=0;whiteSpace=wrap;html=1;sketch=0;fontSize=16;strokeColor=#9673a6;fillColor=#e1d5e7;verticalAlign=middle;fontStyle=1" parent="1" vertex="1">
          <mxGeometry x="835" y="1015" width="80" height="40" as="geometry" />
        </mxCell>
        <mxCell id="D433n9aJu6iHSlLt_FNF-79" value="Method3" style="rounded=0;whiteSpace=wrap;html=1;sketch=0;fontSize=16;strokeColor=#9673a6;fillColor=#e1d5e7;verticalAlign=middle;fontStyle=1;align=center;" parent="1" vertex="1">
          <mxGeometry x="835" y="1065" width="80" height="40" as="geometry" />
        </mxCell>
        <mxCell id="D433n9aJu6iHSlLt_FNF-80" value="Method4" style="rounded=0;whiteSpace=wrap;html=1;sketch=0;fontSize=16;strokeColor=#9673a6;fillColor=#e1d5e7;verticalAlign=middle;fontStyle=1" parent="1" vertex="1">
          <mxGeometry x="935" y="1065" width="80" height="40" as="geometry" />
        </mxCell>
        <mxCell id="D433n9aJu6iHSlLt_FNF-81" value="Method2" style="rounded=0;whiteSpace=wrap;html=1;sketch=0;fontSize=16;strokeColor=#9673a6;fillColor=#e1d5e7;verticalAlign=middle;fontStyle=1" parent="1" vertex="1">
          <mxGeometry x="935" y="1015" width="80" height="40" as="geometry" />
        </mxCell>
        <mxCell id="D433n9aJu6iHSlLt_FNF-82" value="&lt;blockquote style=&quot;margin: 0 0 0 40px ; border: none ; padding: 0px&quot;&gt;Clase&lt;/blockquote&gt;" style="rounded=0;whiteSpace=wrap;html=1;sketch=0;fontSize=16;strokeColor=#d79b00;fillColor=#ffe6cc;verticalAlign=top;align=left;fontStyle=1" parent="1" vertex="1">
          <mxGeometry x="780" y="810" width="290" height="160" as="geometry" />
        </mxCell>
        <mxCell id="D433n9aJu6iHSlLt_FNF-83" value="Merod1" style="rounded=0;whiteSpace=wrap;html=1;sketch=0;fontSize=16;strokeColor=#9673a6;fillColor=#e1d5e7;verticalAlign=middle;fontStyle=1" parent="1" vertex="1">
          <mxGeometry x="835" y="845" width="80" height="40" as="geometry" />
        </mxCell>
        <mxCell id="D433n9aJu6iHSlLt_FNF-84" value="Method3" style="rounded=0;whiteSpace=wrap;html=1;sketch=0;fontSize=16;strokeColor=#9673a6;fillColor=#e1d5e7;verticalAlign=middle;fontStyle=1;align=center;" parent="1" vertex="1">
          <mxGeometry x="835" y="895" width="80" height="40" as="geometry" />
        </mxCell>
        <mxCell id="D433n9aJu6iHSlLt_FNF-85" value="Method4" style="rounded=0;whiteSpace=wrap;html=1;sketch=0;fontSize=16;strokeColor=#9673a6;fillColor=#e1d5e7;verticalAlign=middle;fontStyle=1" parent="1" vertex="1">
          <mxGeometry x="935" y="895" width="80" height="40" as="geometry" />
        </mxCell>
        <mxCell id="D433n9aJu6iHSlLt_FNF-86" value="Method2" style="rounded=0;whiteSpace=wrap;html=1;sketch=0;fontSize=16;strokeColor=#9673a6;fillColor=#e1d5e7;verticalAlign=middle;fontStyle=1" parent="1" vertex="1">
          <mxGeometry x="935" y="845" width="80" height="40" as="geometry" />
        </mxCell>
        <mxCell id="D433n9aJu6iHSlLt_FNF-87" value="&lt;blockquote style=&quot;margin: 0 0 0 40px ; border: none ; padding: 0px&quot;&gt;Clase&lt;/blockquote&gt;" style="rounded=0;whiteSpace=wrap;html=1;sketch=0;fontSize=16;strokeColor=#d79b00;fillColor=#ffe6cc;verticalAlign=top;align=left;fontStyle=1" parent="1" vertex="1">
          <mxGeometry x="450" y="810" width="290" height="160" as="geometry" />
        </mxCell>
        <mxCell id="D433n9aJu6iHSlLt_FNF-88" value="Merod1" style="rounded=0;whiteSpace=wrap;html=1;sketch=0;fontSize=16;strokeColor=#9673a6;fillColor=#e1d5e7;verticalAlign=middle;fontStyle=1" parent="1" vertex="1">
          <mxGeometry x="505" y="845" width="80" height="40" as="geometry" />
        </mxCell>
        <mxCell id="D433n9aJu6iHSlLt_FNF-89" value="Method3" style="rounded=0;whiteSpace=wrap;html=1;sketch=0;fontSize=16;strokeColor=#9673a6;fillColor=#e1d5e7;verticalAlign=middle;fontStyle=1;align=center;" parent="1" vertex="1">
          <mxGeometry x="505" y="895" width="80" height="40" as="geometry" />
        </mxCell>
        <mxCell id="D433n9aJu6iHSlLt_FNF-90" value="Method4" style="rounded=0;whiteSpace=wrap;html=1;sketch=0;fontSize=16;strokeColor=#9673a6;fillColor=#e1d5e7;verticalAlign=middle;fontStyle=1" parent="1" vertex="1">
          <mxGeometry x="605" y="895" width="80" height="40" as="geometry" />
        </mxCell>
        <mxCell id="D433n9aJu6iHSlLt_FNF-91" value="Method2" style="rounded=0;whiteSpace=wrap;html=1;sketch=0;fontSize=16;strokeColor=#9673a6;fillColor=#e1d5e7;verticalAlign=middle;fontStyle=1" parent="1" vertex="1">
          <mxGeometry x="605" y="845" width="80" height="40" as="geometry" />
        </mxCell>
        <mxCell id="D433n9aJu6iHSlLt_FNF-92" value="&lt;blockquote style=&quot;margin: 0 0 0 40px ; border: none ; padding: 0px&quot;&gt;Namespace&lt;/blockquote&gt;" style="rounded=0;whiteSpace=wrap;html=1;sketch=0;fontSize=22;strokeColor=#6c8ebf;fillColor=#dae8fc;verticalAlign=top;align=left;" parent="1" vertex="1">
          <mxGeometry x="1140" y="760" width="700" height="410" as="geometry" />
        </mxCell>
        <mxCell id="D433n9aJu6iHSlLt_FNF-93" value="&lt;blockquote style=&quot;margin: 0 0 0 40px ; border: none ; padding: 0px&quot;&gt;Clase&lt;/blockquote&gt;" style="rounded=0;whiteSpace=wrap;html=1;sketch=0;fontSize=16;strokeColor=#d79b00;fillColor=#ffe6cc;verticalAlign=top;align=left;fontStyle=1" parent="1" vertex="1">
          <mxGeometry x="1180" y="980" width="290" height="160" as="geometry" />
        </mxCell>
        <mxCell id="D433n9aJu6iHSlLt_FNF-94" value="Merod1" style="rounded=0;whiteSpace=wrap;html=1;sketch=0;fontSize=16;strokeColor=#9673a6;fillColor=#e1d5e7;verticalAlign=middle;fontStyle=1" parent="1" vertex="1">
          <mxGeometry x="1235" y="1015" width="80" height="40" as="geometry" />
        </mxCell>
        <mxCell id="D433n9aJu6iHSlLt_FNF-95" value="Method3" style="rounded=0;whiteSpace=wrap;html=1;sketch=0;fontSize=16;strokeColor=#9673a6;fillColor=#e1d5e7;verticalAlign=middle;fontStyle=1;align=center;" parent="1" vertex="1">
          <mxGeometry x="1235" y="1065" width="80" height="40" as="geometry" />
        </mxCell>
        <mxCell id="D433n9aJu6iHSlLt_FNF-96" value="Method4" style="rounded=0;whiteSpace=wrap;html=1;sketch=0;fontSize=16;strokeColor=#9673a6;fillColor=#e1d5e7;verticalAlign=middle;fontStyle=1" parent="1" vertex="1">
          <mxGeometry x="1335" y="1065" width="80" height="40" as="geometry" />
        </mxCell>
        <mxCell id="D433n9aJu6iHSlLt_FNF-97" value="Method2" style="rounded=0;whiteSpace=wrap;html=1;sketch=0;fontSize=16;strokeColor=#9673a6;fillColor=#e1d5e7;verticalAlign=middle;fontStyle=1" parent="1" vertex="1">
          <mxGeometry x="1335" y="1015" width="80" height="40" as="geometry" />
        </mxCell>
        <mxCell id="D433n9aJu6iHSlLt_FNF-98" value="&lt;blockquote style=&quot;margin: 0 0 0 40px ; border: none ; padding: 0px&quot;&gt;Clase&lt;/blockquote&gt;" style="rounded=0;whiteSpace=wrap;html=1;sketch=0;fontSize=16;strokeColor=#d79b00;fillColor=#ffe6cc;verticalAlign=top;align=left;fontStyle=1" parent="1" vertex="1">
          <mxGeometry x="1510" y="980" width="290" height="160" as="geometry" />
        </mxCell>
        <mxCell id="D433n9aJu6iHSlLt_FNF-99" value="Merod1" style="rounded=0;whiteSpace=wrap;html=1;sketch=0;fontSize=16;strokeColor=#9673a6;fillColor=#e1d5e7;verticalAlign=middle;fontStyle=1" parent="1" vertex="1">
          <mxGeometry x="1565" y="1015" width="80" height="40" as="geometry" />
        </mxCell>
        <mxCell id="D433n9aJu6iHSlLt_FNF-100" value="Method3" style="rounded=0;whiteSpace=wrap;html=1;sketch=0;fontSize=16;strokeColor=#9673a6;fillColor=#e1d5e7;verticalAlign=middle;fontStyle=1;align=center;" parent="1" vertex="1">
          <mxGeometry x="1565" y="1065" width="80" height="40" as="geometry" />
        </mxCell>
        <mxCell id="D433n9aJu6iHSlLt_FNF-101" value="Method4" style="rounded=0;whiteSpace=wrap;html=1;sketch=0;fontSize=16;strokeColor=#9673a6;fillColor=#e1d5e7;verticalAlign=middle;fontStyle=1" parent="1" vertex="1">
          <mxGeometry x="1665" y="1065" width="80" height="40" as="geometry" />
        </mxCell>
        <mxCell id="D433n9aJu6iHSlLt_FNF-102" value="Method2" style="rounded=0;whiteSpace=wrap;html=1;sketch=0;fontSize=16;strokeColor=#9673a6;fillColor=#e1d5e7;verticalAlign=middle;fontStyle=1" parent="1" vertex="1">
          <mxGeometry x="1665" y="1015" width="80" height="40" as="geometry" />
        </mxCell>
        <mxCell id="D433n9aJu6iHSlLt_FNF-103" value="&lt;blockquote style=&quot;margin: 0 0 0 40px ; border: none ; padding: 0px&quot;&gt;Clase&lt;/blockquote&gt;" style="rounded=0;whiteSpace=wrap;html=1;sketch=0;fontSize=16;strokeColor=#d79b00;fillColor=#ffe6cc;verticalAlign=top;align=left;fontStyle=1" parent="1" vertex="1">
          <mxGeometry x="1510" y="810" width="290" height="160" as="geometry" />
        </mxCell>
        <mxCell id="D433n9aJu6iHSlLt_FNF-104" value="Merod1" style="rounded=0;whiteSpace=wrap;html=1;sketch=0;fontSize=16;strokeColor=#9673a6;fillColor=#e1d5e7;verticalAlign=middle;fontStyle=1" parent="1" vertex="1">
          <mxGeometry x="1565" y="845" width="80" height="40" as="geometry" />
        </mxCell>
        <mxCell id="D433n9aJu6iHSlLt_FNF-105" value="Method3" style="rounded=0;whiteSpace=wrap;html=1;sketch=0;fontSize=16;strokeColor=#9673a6;fillColor=#e1d5e7;verticalAlign=middle;fontStyle=1;align=center;" parent="1" vertex="1">
          <mxGeometry x="1565" y="895" width="80" height="40" as="geometry" />
        </mxCell>
        <mxCell id="D433n9aJu6iHSlLt_FNF-106" value="Method4" style="rounded=0;whiteSpace=wrap;html=1;sketch=0;fontSize=16;strokeColor=#9673a6;fillColor=#e1d5e7;verticalAlign=middle;fontStyle=1" parent="1" vertex="1">
          <mxGeometry x="1665" y="895" width="80" height="40" as="geometry" />
        </mxCell>
        <mxCell id="D433n9aJu6iHSlLt_FNF-107" value="Method2" style="rounded=0;whiteSpace=wrap;html=1;sketch=0;fontSize=16;strokeColor=#9673a6;fillColor=#e1d5e7;verticalAlign=middle;fontStyle=1" parent="1" vertex="1">
          <mxGeometry x="1665" y="845" width="80" height="40" as="geometry" />
        </mxCell>
        <mxCell id="D433n9aJu6iHSlLt_FNF-108" value="&lt;blockquote style=&quot;margin: 0 0 0 40px ; border: none ; padding: 0px&quot;&gt;Clase&lt;/blockquote&gt;" style="rounded=0;whiteSpace=wrap;html=1;sketch=0;fontSize=16;strokeColor=#d79b00;fillColor=#ffe6cc;verticalAlign=top;align=left;fontStyle=1" parent="1" vertex="1">
          <mxGeometry x="1180" y="810" width="290" height="160" as="geometry" />
        </mxCell>
        <mxCell id="D433n9aJu6iHSlLt_FNF-109" value="Merod1" style="rounded=0;whiteSpace=wrap;html=1;sketch=0;fontSize=16;strokeColor=#9673a6;fillColor=#e1d5e7;verticalAlign=middle;fontStyle=1" parent="1" vertex="1">
          <mxGeometry x="1235" y="845" width="80" height="40" as="geometry" />
        </mxCell>
        <mxCell id="D433n9aJu6iHSlLt_FNF-110" value="Method3" style="rounded=0;whiteSpace=wrap;html=1;sketch=0;fontSize=16;strokeColor=#9673a6;fillColor=#e1d5e7;verticalAlign=middle;fontStyle=1;align=center;" parent="1" vertex="1">
          <mxGeometry x="1235" y="895" width="80" height="40" as="geometry" />
        </mxCell>
        <mxCell id="D433n9aJu6iHSlLt_FNF-111" value="Method4" style="rounded=0;whiteSpace=wrap;html=1;sketch=0;fontSize=16;strokeColor=#9673a6;fillColor=#e1d5e7;verticalAlign=middle;fontStyle=1" parent="1" vertex="1">
          <mxGeometry x="1335" y="895" width="80" height="40" as="geometry" />
        </mxCell>
        <mxCell id="D433n9aJu6iHSlLt_FNF-112" value="Method2" style="rounded=0;whiteSpace=wrap;html=1;sketch=0;fontSize=16;strokeColor=#9673a6;fillColor=#e1d5e7;verticalAlign=middle;fontStyle=1" parent="1" vertex="1">
          <mxGeometry x="1335" y="845" width="80" height="40" as="geometry" />
        </mxCell>
        <mxCell id="D433n9aJu6iHSlLt_FNF-118" value="&lt;blockquote style=&quot;margin: 0 0 0 40px ; border: none ; padding: 0px&quot;&gt;Namespace Default&lt;/blockquote&gt;" style="rounded=0;whiteSpace=wrap;html=1;sketch=0;fontSize=16;strokeColor=#b85450;fillColor=#f8cecc;align=left;verticalAlign=top;fontStyle=1" parent="1" vertex="1">
          <mxGeometry x="20" y="330" width="370" height="220" as="geometry" />
        </mxCell>
        <mxCell id="D433n9aJu6iHSlLt_FNF-128" value="&lt;blockquote style=&quot;margin: 0 0 0 40px ; border: none ; padding: 0px&quot;&gt;Clase&lt;/blockquote&gt;" style="rounded=0;whiteSpace=wrap;html=1;sketch=0;fontSize=16;strokeColor=#d79b00;fillColor=#ffe6cc;verticalAlign=top;align=left;fontStyle=1" parent="1" vertex="1">
          <mxGeometry x="60" y="370" width="290" height="160" as="geometry" />
        </mxCell>
        <mxCell id="D433n9aJu6iHSlLt_FNF-129" value="Merod1" style="rounded=0;whiteSpace=wrap;html=1;sketch=0;fontSize=16;strokeColor=#9673a6;fillColor=#e1d5e7;verticalAlign=middle;fontStyle=1" parent="1" vertex="1">
          <mxGeometry x="115" y="405" width="80" height="40" as="geometry" />
        </mxCell>
        <mxCell id="D433n9aJu6iHSlLt_FNF-130" value="Method3" style="rounded=0;whiteSpace=wrap;html=1;sketch=0;fontSize=16;strokeColor=#9673a6;fillColor=#e1d5e7;verticalAlign=middle;fontStyle=1;align=center;" parent="1" vertex="1">
          <mxGeometry x="115" y="455" width="80" height="40" as="geometry" />
        </mxCell>
        <mxCell id="D433n9aJu6iHSlLt_FNF-131" value="Method4" style="rounded=0;whiteSpace=wrap;html=1;sketch=0;fontSize=16;strokeColor=#9673a6;fillColor=#e1d5e7;verticalAlign=middle;fontStyle=1" parent="1" vertex="1">
          <mxGeometry x="215" y="455" width="80" height="40" as="geometry" />
        </mxCell>
        <mxCell id="D433n9aJu6iHSlLt_FNF-132" value="Method2" style="rounded=0;whiteSpace=wrap;html=1;sketch=0;fontSize=16;strokeColor=#9673a6;fillColor=#e1d5e7;verticalAlign=middle;fontStyle=1" parent="1" vertex="1">
          <mxGeometry x="215" y="405" width="80" height="40" as="geometry" />
        </mxCell>
      </root>
    </mxGraphModel>
  </diagram>
</mxfile>
